<mxfile host="Electron" agent="Mozilla/5.0 (Windows NT 10.0; Win64; x64) AppleWebKit/537.36 (KHTML, like Gecko) draw.io/28.2.5 Chrome/138.0.7204.251 Electron/37.6.1 Safari/537.36" version="28.2.5">
  <diagram name="Página-1" id="QaAr6rrV9a6GtGgr2cNi">
    <mxGraphModel dx="1426" dy="841" grid="1" gridSize="10" guides="1" tooltips="1" connect="1" arrows="1" fold="1" page="1" pageScale="1" pageWidth="827" pageHeight="1169" math="0" shadow="0">
      <root>
        <mxCell id="0" />
        <mxCell id="1" parent="0" />
        <mxCell id="xEZa81j2BeFMKX9rhgyM-5" style="edgeStyle=orthogonalEdgeStyle;rounded=0;orthogonalLoop=1;jettySize=auto;html=1;entryX=0;entryY=0.5;entryDx=0;entryDy=0;entryPerimeter=0;flowAnimation=1;" parent="1" source="xEZa81j2BeFMKX9rhgyM-1" target="xEZa81j2BeFMKX9rhgyM-2" edge="1">
          <mxGeometry relative="1" as="geometry">
            <mxPoint x="230" y="150" as="targetPoint" />
            <Array as="points">
              <mxPoint x="130" y="150" />
            </Array>
          </mxGeometry>
        </mxCell>
        <mxCell id="xEZa81j2BeFMKX9rhgyM-17" value="&lt;b&gt;Gera e Posta&amp;nbsp;&lt;/b&gt;&lt;div&gt;&lt;b&gt;Arquivo&lt;/b&gt;&lt;/div&gt;" style="edgeLabel;html=1;align=center;verticalAlign=middle;resizable=0;points=[];" parent="xEZa81j2BeFMKX9rhgyM-5" vertex="1" connectable="0">
          <mxGeometry x="-0.3793" y="-2" relative="1" as="geometry">
            <mxPoint as="offset" />
          </mxGeometry>
        </mxCell>
        <mxCell id="xEZa81j2BeFMKX9rhgyM-1" value="User" style="sketch=0;outlineConnect=0;fontColor=#232F3E;gradientColor=none;strokeColor=#232F3E;fillColor=#ffffff;dashed=0;verticalLabelPosition=bottom;verticalAlign=top;align=center;html=1;fontSize=12;fontStyle=0;aspect=fixed;shape=mxgraph.aws4.resourceIcon;resIcon=mxgraph.aws4.user;" parent="1" vertex="1">
          <mxGeometry x="90" y="330" width="80" height="80" as="geometry" />
        </mxCell>
        <mxCell id="xEZa81j2BeFMKX9rhgyM-6" style="edgeStyle=orthogonalEdgeStyle;rounded=0;orthogonalLoop=1;jettySize=auto;html=1;flowAnimation=1;" parent="1" source="xEZa81j2BeFMKX9rhgyM-2" target="xEZa81j2BeFMKX9rhgyM-3" edge="1">
          <mxGeometry relative="1" as="geometry" />
        </mxCell>
        <mxCell id="xEZa81j2BeFMKX9rhgyM-8" value="Postado" style="edgeLabel;html=1;align=center;verticalAlign=middle;resizable=0;points=[];fontStyle=1" parent="xEZa81j2BeFMKX9rhgyM-6" vertex="1" connectable="0">
          <mxGeometry x="-0.21" y="2" relative="1" as="geometry">
            <mxPoint as="offset" />
          </mxGeometry>
        </mxCell>
        <mxCell id="xEZa81j2BeFMKX9rhgyM-2" value="&lt;b&gt;Arquivo&lt;/b&gt;" style="shape=document;whiteSpace=wrap;html=1;boundedLbl=1;fillColor=#d5e8d4;strokeColor=#82b366;" parent="1" vertex="1">
          <mxGeometry x="240" y="110" width="120" height="80" as="geometry" />
        </mxCell>
        <mxCell id="xEZa81j2BeFMKX9rhgyM-11" style="edgeStyle=orthogonalEdgeStyle;rounded=0;orthogonalLoop=1;jettySize=auto;html=1;flowAnimation=1;" parent="1" source="xEZa81j2BeFMKX9rhgyM-3" target="xEZa81j2BeFMKX9rhgyM-10" edge="1">
          <mxGeometry relative="1" as="geometry" />
        </mxCell>
        <mxCell id="xEZa81j2BeFMKX9rhgyM-13" value="Trigger" style="edgeLabel;html=1;align=center;verticalAlign=middle;resizable=0;points=[];fontStyle=1" parent="xEZa81j2BeFMKX9rhgyM-11" vertex="1" connectable="0">
          <mxGeometry x="-0.09" y="2" relative="1" as="geometry">
            <mxPoint as="offset" />
          </mxGeometry>
        </mxCell>
        <mxCell id="xEZa81j2BeFMKX9rhgyM-3" value="s3" style="outlineConnect=0;dashed=0;verticalLabelPosition=bottom;verticalAlign=top;align=center;html=1;shape=mxgraph.aws3.s3;fillColor=#d5e8d4;strokeColor=#82b366;" parent="1" vertex="1">
          <mxGeometry x="560" y="103.5" width="90" height="93" as="geometry" />
        </mxCell>
        <mxCell id="xEZa81j2BeFMKX9rhgyM-4" value="" style="outlineConnect=0;dashed=0;verticalLabelPosition=bottom;verticalAlign=top;align=center;html=1;shape=mxgraph.aws3.dynamo_db;fillColor=#d5e8d4;strokeColor=#82b366;" parent="1" vertex="1">
          <mxGeometry x="852.25" y="410" width="72" height="81" as="geometry" />
        </mxCell>
        <mxCell id="xEZa81j2BeFMKX9rhgyM-12" style="edgeStyle=orthogonalEdgeStyle;rounded=0;orthogonalLoop=1;jettySize=auto;html=1;flowAnimation=1;" parent="1" source="xEZa81j2BeFMKX9rhgyM-10" target="xEZa81j2BeFMKX9rhgyM-4" edge="1">
          <mxGeometry relative="1" as="geometry" />
        </mxCell>
        <mxCell id="xEZa81j2BeFMKX9rhgyM-14" value="Grava no Banco de Dados (BD)" style="edgeLabel;html=1;align=center;verticalAlign=middle;resizable=0;points=[];fontStyle=1" parent="xEZa81j2BeFMKX9rhgyM-12" vertex="1" connectable="0">
          <mxGeometry x="-0.0679" y="2" relative="1" as="geometry">
            <mxPoint as="offset" />
          </mxGeometry>
        </mxCell>
        <mxCell id="xEZa81j2BeFMKX9rhgyM-10" value="" style="outlineConnect=0;dashed=0;verticalLabelPosition=bottom;verticalAlign=top;align=center;html=1;shape=mxgraph.aws3.lambda;fillColor=#d5e8d4;strokeColor=#82b366;" parent="1" vertex="1">
          <mxGeometry x="850" y="103.5" width="76.5" height="93" as="geometry" />
        </mxCell>
        <mxCell id="xEZa81j2BeFMKX9rhgyM-15" value="&lt;b&gt;Python&lt;/b&gt;" style="text;html=1;align=center;verticalAlign=middle;resizable=0;points=[];autosize=1;strokeColor=none;fillColor=none;" parent="1" vertex="1">
          <mxGeometry x="930" y="140" width="60" height="30" as="geometry" />
        </mxCell>
        <mxCell id="xEZa81j2BeFMKX9rhgyM-16" value="- Valida o tipo de arquivos.&lt;div&gt;- Valida campos obrigatórios.&lt;/div&gt;" style="text;html=1;align=left;verticalAlign=middle;resizable=0;points=[];autosize=1;strokeColor=none;fillColor=none;" parent="1" vertex="1">
          <mxGeometry x="820" y="50" width="180" height="40" as="geometry" />
        </mxCell>
        <mxCell id="xEZa81j2BeFMKX9rhgyM-18" value="" style="outlineConnect=0;dashed=0;verticalLabelPosition=bottom;verticalAlign=top;align=center;html=1;shape=mxgraph.aws3.api_gateway;fillColor=#d5e8d4;strokeColor=#82b366;" parent="1" vertex="1">
          <mxGeometry x="400" y="500" width="76.5" height="93" as="geometry" />
        </mxCell>
        <mxCell id="xEZa81j2BeFMKX9rhgyM-26" style="edgeStyle=orthogonalEdgeStyle;rounded=0;orthogonalLoop=1;jettySize=auto;html=1;fontStyle=1;flowAnimation=1;" parent="1" source="xEZa81j2BeFMKX9rhgyM-20" edge="1">
          <mxGeometry relative="1" as="geometry">
            <mxPoint x="400" y="540" as="targetPoint" />
            <Array as="points">
              <mxPoint x="100" y="540" />
            </Array>
          </mxGeometry>
        </mxCell>
        <mxCell id="xEZa81j2BeFMKX9rhgyM-28" value="Consulta Nota Fiscal" style="edgeLabel;html=1;align=center;verticalAlign=middle;resizable=0;points=[];fontStyle=1" parent="xEZa81j2BeFMKX9rhgyM-26" vertex="1" connectable="0">
          <mxGeometry x="0.0711" y="2" relative="1" as="geometry">
            <mxPoint as="offset" />
          </mxGeometry>
        </mxCell>
        <mxCell id="xEZa81j2BeFMKX9rhgyM-20" value="&lt;div&gt;&lt;b&gt;&lt;br&gt;&lt;/b&gt;&lt;/div&gt;&lt;div&gt;&lt;b&gt;&lt;br&gt;&lt;/b&gt;&lt;/div&gt;&lt;div&gt;&lt;b&gt;&lt;br&gt;&lt;/b&gt;&lt;/div&gt;&lt;div&gt;&lt;b&gt;&lt;br&gt;&lt;/b&gt;&lt;/div&gt;&lt;div&gt;&lt;b&gt;&lt;br&gt;&lt;/b&gt;&lt;/div&gt;&lt;div&gt;&lt;b&gt;&lt;br&gt;&lt;/b&gt;&lt;/div&gt;&lt;b&gt;Cliente&lt;/b&gt;" style="points=[];aspect=fixed;html=1;align=center;shadow=0;dashed=0;fillColor=#FF6A00;strokeColor=none;shape=mxgraph.alibaba_cloud.user;" parent="1" vertex="1">
          <mxGeometry x="70" y="690" width="60" height="60" as="geometry" />
        </mxCell>
        <mxCell id="xEZa81j2BeFMKX9rhgyM-29" value="" style="outlineConnect=0;dashed=0;verticalLabelPosition=bottom;verticalAlign=top;align=center;html=1;shape=mxgraph.aws3.lambda;fillColor=#d5e8d4;strokeColor=#82b366;" parent="1" vertex="1">
          <mxGeometry x="850" y="650" width="76.5" height="93" as="geometry" />
        </mxCell>
        <mxCell id="xEZa81j2BeFMKX9rhgyM-31" style="edgeStyle=orthogonalEdgeStyle;rounded=0;orthogonalLoop=1;jettySize=auto;html=1;entryX=0;entryY=0.5;entryDx=0;entryDy=0;entryPerimeter=0;flowAnimation=1;" parent="1" source="xEZa81j2BeFMKX9rhgyM-18" target="xEZa81j2BeFMKX9rhgyM-29" edge="1">
          <mxGeometry relative="1" as="geometry" />
        </mxCell>
        <mxCell id="xEZa81j2BeFMKX9rhgyM-32" value="&lt;b&gt;Executa&lt;/b&gt;" style="edgeLabel;html=1;align=center;verticalAlign=middle;resizable=0;points=[];" parent="xEZa81j2BeFMKX9rhgyM-31" vertex="1" connectable="0">
          <mxGeometry x="0.0059" y="1" relative="1" as="geometry">
            <mxPoint as="offset" />
          </mxGeometry>
        </mxCell>
        <mxCell id="xEZa81j2BeFMKX9rhgyM-34" style="edgeStyle=orthogonalEdgeStyle;rounded=0;orthogonalLoop=1;jettySize=auto;html=1;entryX=0.5;entryY=1;entryDx=0;entryDy=0;entryPerimeter=0;flowAnimation=1;" parent="1" source="xEZa81j2BeFMKX9rhgyM-29" target="xEZa81j2BeFMKX9rhgyM-4" edge="1">
          <mxGeometry relative="1" as="geometry" />
        </mxCell>
        <mxCell id="xEZa81j2BeFMKX9rhgyM-35" value="&lt;b&gt;Faz consulta&lt;/b&gt;" style="edgeLabel;html=1;align=center;verticalAlign=middle;resizable=0;points=[];" parent="xEZa81j2BeFMKX9rhgyM-34" vertex="1" connectable="0">
          <mxGeometry x="0.0189" y="-1" relative="1" as="geometry">
            <mxPoint as="offset" />
          </mxGeometry>
        </mxCell>
      </root>
    </mxGraphModel>
  </diagram>
</mxfile>
